<?xml version="1.0" standalone="no"?>
<!DOCTYPE svg PUBLIC "-//W3C//DTD SVG 20010904//EN"
 "http://www.w3.org/TR/2001/REC-SVG-20010904/DTD/svg10.dtd">
<svg version="1.0" xmlns="http://www.w3.org/2000/svg"
 width="505.000000pt" height="505.000000pt" viewBox="0 0 505.000000 505.000000"
 preserveAspectRatio="xMidYMid meet">
<metadata>
Created by potrace 1.11, written by Peter Selinger 2001-2013
</metadata>
<g transform="translate(0.000000,505.000000) scale(0.100000,-0.100000)"
fill="#000000" stroke="none">
<path d="M1784 4848 c-5 -7 -9 -55 -11 -108 -2 -52 -10 -112 -18 -133 -8 -20
-15 -48 -15 -62 0 -13 -4 -26 -9 -29 -4 -3 -11 -24 -15 -46 -3 -22 -11 -40
-16 -40 -6 0 -10 -9 -10 -20 0 -20 -37 -95 -86 -175 -13 -22 -27 -47 -31 -55
-4 -8 -10 -17 -13 -20 -4 -3 -34 -39 -67 -80 -60 -76 -197 -215 -243 -247 -14
-10 -34 -27 -45 -38 -11 -11 -40 -36 -65 -55 -25 -19 -61 -49 -80 -67 -19 -17
-38 -31 -42 -30 -4 1 -24 -14 -45 -34 -21 -20 -72 -62 -113 -95 -110 -86 -285
-265 -368 -375 -63 -86 -89 -126 -172 -274 -11 -19 -20 -42 -20 -49 0 -7 -7
-19 -15 -26 -8 -7 -15 -21 -15 -31 0 -11 -4 -27 -10 -37 -16 -30 -38 -86 -43
-112 -3 -14 -10 -38 -15 -55 -24 -70 -32 -103 -32 -131 -1 -16 -7 -56 -15 -89
-17 -71 -20 -366 -4 -435 6 -25 13 -65 15 -90 3 -25 9 -54 14 -65 5 -11 11
-33 13 -50 5 -29 16 -65 44 -135 50 -123 116 -255 161 -317 12 -17 22 -36 22
-42 0 -5 6 -14 13 -18 7 -4 24 -24 37 -43 38 -55 128 -159 201 -230 64 -63
267 -229 293 -240 7 -3 44 -26 83 -53 39 -26 75 -47 81 -47 6 0 12 -4 14 -9 3
-9 257 -134 296 -146 12 -3 22 -11 22 -16 0 -5 9 -9 19 -9 11 0 34 -8 53 -17
61 -31 68 -33 87 -33 11 0 22 -4 26 -9 3 -5 20 -13 37 -17 18 -3 39 -10 48
-14 35 -17 87 -33 123 -37 32 -4 37 -2 37 14 0 13 -14 26 -40 39 -22 10 -40
22 -40 25 0 3 -21 21 -47 39 -68 48 -128 103 -289 266 -132 132 -210 226 -292
349 -42 63 -132 244 -132 265 0 9 -4 20 -9 25 -11 12 -30 75 -41 135 -5 25
-13 63 -19 85 -14 52 -14 360 0 405 5 19 14 58 19 85 17 96 30 149 40 159 6 6
10 20 10 33 0 13 4 31 9 41 5 9 23 55 41 102 46 122 63 160 70 160 4 0 7 7 7
15 0 8 11 39 26 67 14 29 33 69 41 88 9 19 20 42 25 50 5 8 17 33 27 55 11 22
22 42 27 43 4 2 7 10 7 17 0 8 12 36 26 62 62 112 234 459 234 470 0 7 5 13
10 13 6 0 10 7 10 16 0 9 7 28 15 42 22 40 85 194 85 209 0 7 4 21 9 31 23 44
41 92 56 147 9 33 21 70 26 83 5 13 9 35 9 50 0 16 4 32 9 37 14 14 30 130 42
295 6 80 10 150 10 155 -1 6 -3 62 -6 125 -4 63 -10 131 -16 150 -5 19 -9 53
-9 76 0 52 -37 93 -56 62z"/>
<path d="M3377 4803 c-4 -3 -7 -21 -7 -40 0 -18 -4 -33 -10 -33 -5 0 -10 -15
-10 -33 0 -18 -6 -58 -14 -88 -43 -162 -28 -628 24 -765 6 -14 10 -38 10 -54
0 -15 7 -41 15 -56 8 -16 12 -36 10 -45 -3 -9 1 -22 10 -29 8 -7 15 -24 15
-39 1 -14 7 -37 15 -51 8 -14 14 -35 15 -47 0 -13 5 -23 10 -23 6 0 10 -13 10
-29 0 -16 7 -34 15 -41 8 -7 15 -20 15 -30 0 -10 11 -44 25 -76 36 -83 45
-105 60 -139 15 -37 27 -64 60 -140 45 -101 57 -127 90 -200 36 -77 90 -201
112 -255 8 -19 18 -44 23 -55 4 -11 15 -38 24 -60 10 -22 21 -48 26 -57 6 -10
10 -24 10 -33 0 -8 7 -31 16 -52 26 -60 32 -76 37 -103 3 -14 10 -38 15 -55 6
-16 15 -48 21 -70 5 -22 16 -67 24 -100 16 -64 37 -249 37 -330 0 -65 -19
-212 -32 -250 -5 -16 -14 -48 -18 -70 -13 -64 -55 -173 -92 -240 -6 -10 -21
-39 -34 -63 -95 -179 -379 -481 -609 -646 -22 -16 -41 -33 -43 -38 -2 -4 -10
-8 -18 -8 -8 0 -17 -7 -20 -15 -4 -8 -11 -15 -17 -15 -5 0 -25 -11 -43 -25
-18 -14 -36 -25 -39 -25 -8 0 -44 -42 -45 -52 0 -11 48 -10 54 1 3 5 20 11 38
14 61 10 133 29 142 38 6 5 22 9 37 9 15 0 30 4 33 9 3 5 18 11 33 14 34 6
105 31 193 69 14 6 39 16 55 23 17 7 55 24 85 38 30 13 72 32 92 41 20 9 40
21 43 26 3 6 15 10 26 10 10 0 19 4 19 9 0 5 8 11 18 15 17 5 31 14 87 51 16
11 40 25 52 32 90 47 332 253 439 374 41 46 144 186 144 195 0 4 6 15 14 23
27 31 136 240 136 262 0 6 6 23 14 37 17 32 56 158 68 222 29 146 33 504 7
625 -30 137 -55 228 -75 267 -8 14 -14 35 -14 46 0 12 -4 24 -10 27 -5 3 -10
15 -10 25 0 10 -7 25 -15 34 -8 8 -15 21 -15 29 0 9 -3 17 -7 19 -10 4 -43 66
-43 79 0 6 -11 25 -25 43 -14 18 -25 36 -25 40 0 4 -11 22 -25 40 -14 18 -25
38 -25 44 0 7 -4 12 -9 12 -5 0 -19 16 -31 35 -12 19 -36 52 -53 72 -52 61
-317 322 -382 375 -47 39 -263 238 -319 294 -50 51 -120 138 -183 229 -15 22
-31 42 -35 43 -5 2 -8 12 -8 23 0 10 -4 19 -9 19 -4 0 -21 28 -36 63 -15 34
-33 75 -41 91 -8 16 -14 36 -14 46 0 9 -4 20 -9 26 -14 13 -31 86 -42 174 -5
41 -14 88 -19 104 -6 16 -10 55 -10 87 0 43 -4 59 -13 59 -8 0 -17 -3 -20 -7z"/>
<path d="M1977 4504 c-4 -4 -7 -55 -7 -114 0 -71 -4 -110 -12 -118 -10 -10
-10 -15 -1 -20 8 -5 9 -13 3 -22 -6 -8 -10 -42 -10 -75 0 -54 -17 -148 -41
-231 -5 -17 -9 -39 -9 -50 0 -11 -7 -29 -15 -40 -8 -10 -15 -26 -15 -35 0 -9
-7 -30 -15 -45 -8 -16 -15 -37 -15 -46 0 -10 -4 -18 -10 -18 -5 0 -10 -11 -10
-24 0 -13 -7 -29 -15 -36 -8 -7 -15 -19 -15 -26 0 -8 -4 -22 -9 -32 -5 -9 -28
-57 -51 -107 -58 -128 -187 -383 -200 -395 -11 -11 -40 -73 -40 -86 0 -8 -4
-14 -10 -14 -5 0 -10 -8 -10 -19 0 -10 -7 -24 -15 -31 -8 -7 -15 -20 -15 -30
0 -10 -7 -23 -15 -30 -8 -7 -15 -20 -15 -29 0 -9 -4 -21 -9 -27 -4 -5 -23 -45
-41 -89 -17 -44 -36 -84 -41 -89 -5 -6 -9 -20 -9 -32 0 -13 -4 -26 -10 -29 -5
-3 -10 -15 -10 -27 0 -11 -6 -32 -14 -46 -8 -15 -22 -54 -31 -87 -9 -33 -20
-68 -26 -77 -5 -10 -9 -29 -9 -43 0 -14 -4 -33 -9 -43 -10 -19 -28 -99 -41
-187 -5 -33 -14 -82 -19 -110 -13 -68 -13 -429 0 -485 6 -25 15 -67 19 -95 14
-80 31 -149 41 -160 5 -5 9 -19 9 -32 0 -13 4 -31 9 -41 5 -9 32 -64 59 -122
28 -58 78 -146 111 -197 67 -101 269 -315 351 -373 27 -19 50 -38 50 -42 0 -5
5 -8 11 -8 6 0 17 -6 24 -13 31 -27 44 -37 50 -37 4 0 21 -10 38 -23 49 -34
70 -47 90 -53 9 -4 17 -10 17 -14 0 -4 8 -10 18 -14 9 -3 25 -11 34 -18 15
-10 20 -10 33 3 14 14 11 19 -31 49 -68 49 -190 173 -228 233 -69 109 -110
215 -126 328 -11 75 -10 98 5 175 9 49 21 93 26 99 5 5 9 18 9 28 0 20 46 113
67 135 7 7 13 18 13 23 0 6 36 45 81 88 63 62 101 89 182 130 57 28 112 51
124 51 11 0 37 7 56 15 52 22 394 22 423 0 10 -8 33 -15 51 -15 17 0 35 -4 38
-10 3 -5 17 -10 29 -10 13 0 29 -7 36 -15 7 -8 19 -15 28 -15 15 0 96 -48 136
-80 45 -36 146 -146 146 -158 0 -3 11 -20 25 -38 14 -18 25 -37 25 -43 0 -6 7
-27 16 -48 30 -69 33 -78 39 -123 22 -175 1 -313 -66 -430 -5 -8 -12 -22 -16
-30 -32 -73 -152 -203 -270 -294 -59 -44 -80 -76 -50 -76 14 0 33 9 122 60 28
16 69 39 93 51 23 12 42 26 42 31 0 4 5 8 12 8 6 0 26 11 44 25 18 14 37 25
43 25 6 0 11 4 11 9 0 4 17 20 38 33 20 14 49 36 64 49 15 13 59 51 97 84 38
33 72 67 75 75 4 8 21 31 39 50 31 33 119 152 144 195 36 62 104 211 127 280
15 44 31 89 36 100 5 11 11 36 13 55 3 19 15 96 27 170 18 113 21 159 16 280
-7 191 -41 422 -81 560 -7 25 -20 72 -30 105 -9 33 -19 67 -23 75 -3 8 -11 33
-17 55 -19 62 -54 157 -85 230 -32 76 -63 144 -75 167 -8 14 -15 33 -15 42 0
9 -4 16 -10 16 -5 0 -10 8 -10 19 0 10 -7 24 -15 31 -8 7 -15 18 -15 25 0 7
-11 35 -24 62 -13 26 -31 66 -41 88 -18 45 -23 55 -59 138 -14 32 -26 62 -26
67 0 6 -4 18 -10 28 -5 9 -16 35 -24 57 -20 60 -48 137 -57 160 -13 36 -37
119 -47 170 -32 151 -37 198 -42 395 -4 181 -7 215 -20 215 -8 0 -16 -9 -18
-20 -3 -11 -10 -24 -18 -28 -8 -4 -14 -17 -14 -28 0 -10 -4 -27 -9 -37 -23
-46 -41 -95 -41 -112 0 -10 -4 -22 -10 -25 -5 -3 -10 -20 -10 -36 0 -17 -5
-40 -12 -52 -26 -47 -50 -394 -36 -517 20 -168 27 -218 37 -255 6 -22 11 -57
11 -77 0 -20 5 -40 10 -43 6 -3 10 -24 10 -46 0 -22 5 -49 11 -60 10 -19 21
-70 37 -169 4 -25 12 -52 17 -60 5 -8 12 -35 16 -60 4 -25 13 -79 19 -120 6
-41 16 -82 21 -92 5 -9 9 -99 9 -199 0 -141 -4 -193 -17 -233 -20 -63 -33 -97
-44 -116 -5 -8 -16 -31 -26 -50 -24 -48 -156 -178 -230 -228 -64 -41 -241
-132 -260 -132 -6 0 -24 -7 -39 -15 -16 -8 -37 -15 -46 -15 -9 0 -19 -4 -22
-9 -6 -9 -56 3 -86 20 -8 5 -22 12 -30 15 -8 3 -42 19 -75 36 -33 17 -70 36
-82 42 -13 6 -23 14 -23 19 0 4 -5 7 -11 7 -18 0 -152 106 -204 161 -54 58
-115 150 -115 174 0 8 -4 15 -10 15 -5 0 -10 11 -10 25 0 15 -7 40 -17 58 -22
43 -23 375 -1 410 8 12 16 44 17 71 1 27 6 56 11 65 11 23 31 99 37 143 3 21
11 42 18 48 8 6 11 18 9 25 -3 7 1 29 9 47 9 18 18 47 20 63 3 17 13 55 23 85
9 30 19 73 21 95 3 22 11 47 18 55 7 8 15 35 18 60 11 81 24 154 35 185 14 39
26 185 26 310 0 145 -8 305 -15 305 -13 0 -27 51 -46 157 -3 18 -11 38 -19 44
-8 6 -14 20 -14 30 0 11 -5 29 -12 42 -6 12 -14 28 -18 36 -8 17 -23 24 -33
15z"/>
<path d="M2450 2741 c0 -5 -15 -13 -32 -16 -58 -13 -188 -112 -188 -143 0 -5
-6 -12 -13 -15 -7 -3 -25 -43 -41 -90 -22 -66 -27 -97 -23 -138 12 -134 92
-261 205 -327 95 -55 311 -57 364 -4 7 7 18 12 26 12 21 0 124 110 146 155 10
22 23 49 29 59 5 11 9 65 9 121 0 91 -3 109 -29 162 -36 78 -100 146 -166 179
-29 14 -65 32 -80 40 -32 16 -207 20 -207 5z"/>
</g>
</svg>
